P3
9 9
255
0 0 -1040186941
0 0 -1040186941
0 0 -1040186941
0 0 -1040186941
0 0 -1040186941
0 0 -1040186941
0 0 -1040186941
0 0 -1040186941
0 0 -1040186941
0 0 -1040186941
0 0 -520093470
0 0 -520093470
0 0 -1040186941
0 0 -520093470
0 0 -520093470
0 0 -520093470
0 0 -520093470
0 0 -1040186941
0 0 -1040186941
0 0 -520093470
0 0 -1040186941
0 0 -520093470
0 0 -520093470
0 0 -520093470
0 0 -520093470
0 0 -1040186941
0 0 -1040186941
0 0 -1040186941
0 0 -1040186941
0 0 -1040186941
0 0 -1040186941
0 0 -520093470
0 0 -520093470
0 0 -520093470
0 0 -520093470
0 0 -1040186941
0 0 -1040186941
0 0 -520093470
0 0 -520093470
0 0 -520093470
0 0 -520093470
0 0 -520093470
0 0 -520093470
0 0 -520093470
0 0 -1040186941
0 0 -1040186941
0 0 -1040186941
0 0 -1040186941
0 0 -1040186941
0 0 -1040186941
0 0 -520093470
0 0 -520093470
0 0 -520093470
0 0 -520093470
0 0 -1040186941
0 0 -1040186941
0 0 -1040186941
0 0 -520093470
0 0 -1040186941
0 0 -520093470
0 0 -520093470
0 0 -520093470
0 0 -520093470
0 0 -1040186941
0 0 -1040186941
0 0 -1040186941
0 0 -1040186941
0 0 -1040186941
0 0 -520093470
0 0 -520093470
0 0 -520093470
0 0 -520093470
0 0 -1040186941
0 0 -1040186941
0 0 -520093470
0 0 -1040186941
0 0 -520093470
0 0 -520093470
0 0 -520093470
0 0 -520093470
0 0 -520093470
