P3
17 17
255
0 0 -765500260
0 0 -765500260
0 0 -765500260
0 0 -765500260
0 0 -765500260
0 0 -765500260
0 0 -765500260
0 0 -765500260
0 0 -765500260
0 0 -765500260
0 0 -765500260
0 0 -765500260
0 0 -765500260
0 0 -765500260
0 0 -765500260
0 0 -765500260
0 0 -765500260
0 0 -765500260
0 0 -382750130
0 0 -382750130
56 85 108
0 0 -765500260
0 0 -765500260
0 0 -382750130
0 0 -765500260
0 0 -765500260
0 0 -382750130
0 0 -382750130
0 0 -765500260
0 0 -765500260
73 95 69
0 0 -765500260
0 0 -765500260
56 85 108
0 0 -765500260
0 0 -382750130
0 0 -382750130
0 0 -382750130
0 0 -765500260
0 0 -382750130
85 67 41
0 0 -765500260
0 0 -382750130
0 0 -382750130
56 85 108
0 0 -765500260
0 0 -382750130
0 0 -382750130
104 107 85
0 0 -382750130
0 0 -382750130
0 0 -765500260
0 0 -382750130
0 0 -382750130
0 0 -382750130
0 0 -382750130
0 0 -382750130
56 85 108
0 0 -382750130
0 0 -382750130
0 0 -382750130
0 0 -382750130
0 0 -382750130
56 85 108
0 0 -382750130
0 0 -382750130
0 0 -382750130
0 0 -765500260
0 0 -765500260
0 0 -765500260
0 0 -382750130
0 0 -382750130
0 0 -382750130
0 0 -382750130
0 0 -382750130
0 0 -765500260
0 0 -765500260
0 0 -765500260
0 0 -382750130
0 0 -382750130
0 0 -382750130
0 0 -382750130
0 0 -382750130
0 0 -382750130
0 0 -382750130
0 0 -765500260
0 0 -765500260
0 0 -765500260
0 0 -382750130
0 0 -382750130
0 0 -382750130
0 0 -382750130
0 0 -765500260
0 0 -382750130
0 0 -382750130
0 0 -382750130
0 0 -382750130
0 0 -382750130
0 0 -382750130
0 0 -765500260
60 89 111
0 0 -382750130
0 0 -765500260
0 0 -765500260
0 0 -382750130
0 0 -382750130
0 0 -382750130
56 85 108
0 0 -382750130
0 0 -765500260
0 0 -382750130
0 0 -382750130
105 101 78
0 0 -382750130
0 0 -382750130
0 0 -382750130
0 0 -382750130
0 0 -382750130
0 0 -382750130
0 0 -765500260
0 0 -382750130
0 0 -382750130
0 0 -382750130
0 0 -382750130
0 0 -382750130
0 0 -382750130
0 0 -382750130
0 0 -382750130
0 0 -382750130
0 0 -382750130
0 0 -382750130
0 0 -382750130
0 0 -765500260
0 0 -382750130
0 0 -382750130
0 0 -382750130
0 0 -765500260
0 0 -765500260
0 0 -382750130
0 0 -382750130
0 0 -382750130
0 0 -382750130
0 0 -382750130
0 0 -765500260
0 0 -382750130
0 0 -382750130
0 0 -382750130
0 0 -382750130
0 0 -382750130
0 0 -382750130
0 0 -382750130
0 0 -765500260
0 0 -382750130
0 0 -765500260
112 114 90
0 0 -765500260
0 0 -382750130
0 0 -765500260
0 0 -382750130
0 0 -382750130
0 0 -382750130
0 0 -382750130
0 0 -382750130
0 0 -382750130
0 0 -382750130
0 0 -382750130
0 0 -765500260
0 0 -382750130
0 0 -382750130
0 0 -382750130
0 0 -765500260
0 0 -765500260
0 0 -765500260
0 0 -765500260
0 0 -382750130
0 0 -765500260
0 0 -382750130
56 85 108
56 85 108
0 0 -382750130
0 0 -382750130
0 0 -382750130
0 0 -382750130
56 85 108
0 0 -382750130
0 0 -382750130
0 0 -382750130
0 0 -765500260
0 0 -765500260
0 0 -765500260
66 92 113
0 0 -382750130
0 0 -382750130
0 0 -765500260
0 0 -382750130
0 0 -382750130
80 105 123
0 0 -382750130
0 0 -382750130
0 0 -382750130
0 0 -382750130
0 0 -382750130
0 0 -382750130
0 0 -382750130
0 0 -765500260
0 0 -382750130
0 0 -382750130
0 0 -382750130
0 0 -382750130
56 85 108
0 0 -382750130
0 0 -382750130
0 0 -382750130
0 0 -382750130
0 0 -382750130
0 0 -382750130
0 0 -382750130
0 0 -382750130
0 0 -382750130
0 0 -382750130
0 0 -382750130
0 0 -765500260
0 0 -765500260
0 0 -382750130
0 0 -382750130
0 0 -382750130
0 0 -765500260
0 0 -382750130
97 83 53
0 0 -382750130
0 0 -382750130
0 0 -382750130
105 101 78
0 0 -382750130
105 101 78
0 0 -382750130
0 0 -382750130
0 0 -382750130
0 0 -765500260
0 0 -382750130
115 112 91
0 0 -382750130
0 0 -382750130
0 0 -382750130
0 0 -382750130
0 0 -765500260
0 0 -382750130
0 0 -382750130
0 0 -382750130
0 0 -382750130
0 0 -382750130
0 0 -382750130
0 0 -382750130
0 0 -382750130
0 0 -382750130
0 0 -765500260
0 0 -765500260
0 0 -382750130
0 0 -765500260
0 0 -765500260
86 109 125
0 0 -382750130
0 0 -382750130
0 0 -382750130
0 0 -382750130
0 0 -382750130
0 0 -382750130
0 0 -382750130
80 105 123
56 85 108
0 0 -382750130
0 0 -382750130
0 0 -765500260
0 0 -765500260
0 0 -765500260
0 0 -765500260
0 0 -382750130
0 0 -382750130
0 0 -382750130
56 85 108
0 0 -382750130
0 0 -382750130
0 0 -382750130
0 0 -382750130
0 0 -382750130
56 85 108
0 0 -382750130
0 0 -382750130
0 0 -382750130
