P3
17 17
255
209 215 171
167 197 142
160 210 247
147 191 139
184 227 255
147 191 139
197 235 255
113 171 216
160 210 247
238 235 191
167 197 142
238 235 191
172 208 165
197 235 255
172 208 165
172 218 250
132 184 227
224 228 180
238 235 191
238 235 191
184 227 255
120 145 115
84 124 155
128 158 178
92 128 158
132 184 227
147 191 139
128 158 178
189 204 150
132 142 105
98 134 163
98 134 163
128 158 178
79 119 151
184 227 255
116 137 99
156 159 125
84 124 155
184 227 255
120 145 115
84 124 155
189 204 150
189 204 150
172 218 250
120 145 115
116 137 99
132 142 105
79 119 151
105 140 168
120 152 175
112 147 172
231 224 182
189 204 150
146 150 119
112 147 172
79 119 151
184 227 255
92 128 158
209 215 171
222 214 163
224 228 180
79 119 151
79 119 151
102 133 97
209 215 171
128 158 178
128 158 178
79 119 151
147 191 139
128 158 178
84 124 155
105 140 168
79 119 151
79 119 151
128 158 178
105 140 168
105 140 168
79 119 151
98 134 163
84 124 155
79 119 151
79 119 151
137 164 178
92 128 158
98 134 163
113 171 216
84 124 155
112 147 172
84 124 155
120 152 175
79 119 151
92 128 158
128 158 178
128 158 178
128 158 178
92 128 158
120 152 175
84 124 155
112 147 172
132 142 105
137 164 178
105 140 168
150 201 240
172 208 165
92 128 158
120 152 175
79 119 151
92 128 158
120 152 175
79 119 151
79 119 151
79 119 151
79 119 151
79 119 151
105 140 168
184 227 255
84 124 155
102 133 97
79 119 151
150 201 240
172 218 250
120 152 175
128 158 178
79 119 151
92 128 158
102 133 97
128 158 178
79 119 151
112 147 172
105 140 168
112 147 172
79 119 151
120 145 115
79 119 151
128 158 178
79 119 151
121 178 222
79 119 151
120 152 175
167 197 142
112 147 172
79 119 151
112 147 172
79 119 151
128 158 178
120 145 115
105 140 168
98 134 163
92 128 158
116 137 99
98 134 163
79 119 151
79 119 151
121 178 222
172 208 165
79 119 151
79 119 151
79 119 151
105 140 168
137 164 178
120 152 175
120 152 175
128 158 178
112 147 172
128 158 178
120 145 115
128 158 178
137 164 178
116 137 99
167 197 142
113 171 216
140 192 234
79 119 151
84 124 155
84 124 155
79 119 151
84 124 155
105 140 168
120 145 115
84 124 155
137 164 178
84 124 155
98 134 163
112 147 172
120 152 175
105 140 168
120 145 115
121 178 222
79 119 151
79 119 151
79 119 151
172 218 250
79 119 151
84 124 155
112 147 172
116 137 99
120 145 115
112 147 172
79 119 151
84 124 155
105 140 168
189 204 150
102 133 97
105 140 168
172 218 250
172 208 165
121 178 222
92 128 158
98 134 163
147 191 139
184 227 255
92 128 158
120 152 175
98 134 163
137 164 178
120 145 115
79 119 151
79 119 151
98 134 163
79 119 151
79 119 151
160 210 247
189 204 150
98 134 163
150 201 240
150 201 240
137 164 178
92 128 158
128 158 178
189 204 150
209 215 171
116 137 99
128 158 178
120 145 115
98 134 163
79 119 151
79 119 151
112 147 172
167 197 142
98 134 163
92 128 158
79 119 151
84 124 155
172 218 250
189 204 150
120 145 115
167 197 142
137 164 178
137 164 178
128 158 178
116 137 99
112 147 172
84 124 155
105 140 168
84 124 155
172 218 250
137 164 178
172 218 250
79 119 151
79 119 151
172 218 250
167 197 142
102 133 97
120 145 115
120 145 115
92 128 158
132 142 105
102 133 97
137 164 178
146 150 119
120 145 115
120 152 175
172 218 250
79 119 151
79 119 151
98 134 163
79 119 151
84 124 155
84 124 155
120 152 175
116 137 99
120 145 115
98 134 163
84 124 155
137 164 178
132 142 105
102 133 97
102 133 97
116 137 99
